<?xml version="1.0" standalone="no"?>
<!DOCTYPE svg PUBLIC "-//W3C//DTD SVG 20010904//EN"
 "http://www.w3.org/TR/2001/REC-SVG-20010904/DTD/svg10.dtd">
<svg version="1.0" xmlns="http://www.w3.org/2000/svg"
 width="1920.000000pt" height="1080.000000pt" viewBox="0 0 1920.000000 1080.000000"
 preserveAspectRatio="xMidYMid meet">

<g transform="translate(0.000000,1080.000000) scale(0.100000,-0.100000)"
fill="#000000" stroke="none">
<path d="M0 5400 l0 -5400 3018 1 3017 0 53 73 c30 40 78 99 109 132 101 109
151 201 249 462 27 69 44 101 53 100 20 -4 26 -28 7 -28 -23 0 -41 -43 -81
-193 -19 -75 -42 -149 -49 -164 -8 -15 -26 -53 -41 -83 -15 -30 -41 -69 -59
-87 -42 -43 -51 -54 -97 -123 -61 -92 -64 -90 116 -90 137 0 155 2 163 17 5
10 7 24 5 31 -3 7 5 34 18 60 12 26 24 53 25 61 2 8 17 42 34 77 30 61 50 81
50 49 0 -8 -4 -15 -10 -15 -6 0 -5 -10 2 -25 9 -20 7 -34 -16 -83 -14 -33 -26
-65 -26 -71 0 -6 -4 -11 -10 -11 -5 0 -7 -6 -4 -14 3 -8 -4 -24 -15 -35 -12
-12 -21 -25 -21 -31 0 -6 109 -10 308 -10 l308 0 14 35 c8 19 20 35 27 35 7 0
20 15 29 33 24 46 56 87 68 87 14 1 64 46 94 85 55 70 187 215 197 215 5 0 23
7 39 15 16 9 50 18 75 20 24 3 47 8 50 12 9 12 91 55 91 48 0 -4 -9 -18 -20
-32 -42 -53 -10 -111 54 -99 28 5 36 12 41 36 9 42 -1 66 -35 80 -31 13 -40
30 -16 30 7 0 19 6 25 14 16 19 113 66 137 66 12 0 15 3 7 8 -7 5 1 11 22 18
34 11 35 10 46 -23 6 -19 20 -38 31 -42 32 -12 76 -1 81 20 8 29 22 23 36 -16
15 -43 10 -52 -34 -61 -19 -3 -39 -12 -46 -20 -6 -8 -17 -14 -24 -14 -7 0 -15
-6 -18 -14 -3 -8 -22 -22 -41 -31 -20 -10 -36 -23 -36 -30 0 -22 -48 -46 -103
-52 -56 -6 -117 -36 -158 -77 -15 -14 -44 -40 -65 -57 -22 -17 -40 -41 -41
-52 -2 -27 -48 -142 -68 -174 -9 -12 -24 -23 -34 -23 -10 0 -26 -9 -36 -20
-18 -20 -17 -20 598 -20 400 0 618 4 622 10 3 6 11 10 16 10 6 0 7 -4 4 -10
-4 -7 871 -10 2617 -10 2088 0 2618 3 2599 13 -20 10 -25 21 -28 66 -4 49 -3
53 14 46 10 -4 35 -9 56 -12 l37 -6 0 -53 0 -54 2585 0 2585 0 0 5400 0 5400
-9600 0 -9600 0 0 -5400z m6664 578 c5 -34 4 -54 -3 -56 -6 -2 -12 -11 -13
-20 0 -9 -4 6 -7 33 -7 55 -3 95 9 95 4 0 11 -24 14 -52z m51 -88 c3 -5 1 -10
-4 -10 -6 0 -11 5 -11 10 0 6 2 10 4 10 3 0 8 -4 11 -10z m7091 -77 c-3 -7 1
-13 9 -13 7 0 16 -4 19 -9 4 -5 -3 -7 -14 -4 -17 5 -20 0 -20 -28 0 -19 3 -44
6 -57 6 -22 8 -22 25 -6 18 16 19 16 19 -17 0 -26 -3 -30 -10 -19 -8 12 -10
11 -10 -7 0 -12 5 -34 11 -50 6 -15 12 -59 14 -98 4 -63 3 -68 -10 -51 -8 11
-15 24 -15 28 0 5 -9 19 -20 30 -14 15 -17 24 -9 29 8 5 5 16 -10 38 -25 35
-36 38 -45 15 -3 -8 -2 -13 3 -10 5 3 11 -1 15 -9 3 -10 -1 -15 -13 -15 -10 0
-18 -7 -18 -15 0 -8 4 -12 8 -9 10 6 38 -36 78 -116 21 -43 25 -57 12 -40 -11
14 -30 45 -42 70 -30 65 -39 74 -53 55 -10 -13 -15 -13 -43 7 -18 13 -31 29
-28 36 2 6 0 12 -5 12 -6 0 -3 17 5 37 20 47 22 48 39 34 11 -9 15 -8 19 3 4
9 2 18 -3 21 -16 10 -12 30 27 130 36 93 36 94 50 68 8 -15 11 -33 9 -40z
m-7157 45 c0 -7 -6 -29 -13 -48 l-13 -35 -6 30 c-3 17 -1 32 4 33 5 2 9 10 9
18 0 8 5 14 10 14 6 0 10 -6 9 -12z m108 -55 c3 -22 1 -43 -4 -46 -5 -3 -10 6
-10 21 0 15 -3 41 -7 57 -6 23 -5 27 4 19 6 -6 14 -30 17 -51z m7290 -45 c-3
-8 -6 -5 -6 6 -1 11 2 17 5 13 3 -3 4 -12 1 -19z m-210 -10 c-3 -8 -6 -5 -6 6
-1 11 2 17 5 13 3 -3 4 -12 1 -19z m-7047 -18 c0 -5 -5 -10 -11 -10 -5 0 -7 5
-4 10 3 6 8 10 11 10 2 0 4 -4 4 -10z m-107 -12 c5 -16 -10 -47 -34 -71 -11
-10 -19 -28 -19 -39 0 -16 3 -19 11 -11 12 12 52 6 44 -7 -3 -4 2 -13 11 -21
20 -16 38 2 53 51 10 34 10 33 4 -10 -8 -61 -20 -90 -37 -90 -8 0 -17 -9 -21
-20 -6 -20 20 -127 54 -216 29 -76 31 -181 3 -148 -5 5 -17 45 -26 89 -10 44
-22 85 -27 91 -8 10 -20 63 -34 147 -3 20 -10 37 -14 37 -12 0 -12 -53 0 -187
9 -96 9 -129 -1 -153 -7 -16 -16 -28 -20 -25 -4 2 -10 39 -14 81 -3 42 -11 83
-17 90 -6 7 -12 45 -14 84 -3 64 -2 70 11 53 14 -16 14 -11 8 52 -9 88 -9 87
8 165 14 62 15 63 22 33 9 -37 28 -45 26 -10 -3 35 -1 47 9 47 5 0 11 -6 14
-12z m-183 -48 c0 -5 -4 -10 -10 -10 -5 0 -10 5 -10 10 0 6 5 10 10 10 6 0 10
-4 10 -10z m211 -33 c-13 -13 -15 1 -4 30 7 17 8 17 11 -1 2 -10 -1 -23 -7
-29z m-191 -21 c0 -13 6 -43 13 -67 14 -46 5 -115 -13 -104 -5 3 -7 0 -5 -7 3
-8 -1 -39 -9 -69 -13 -52 -14 -49 -11 101 2 85 4 161 4 168 1 23 21 2 21 -22z
m7547 12 c-3 -8 -6 -5 -6 6 -1 11 2 17 5 13 3 -3 4 -12 1 -19z m-8022 -98 c-3
-5 -11 -10 -16 -10 -6 0 -7 5 -4 10 3 6 11 10 16 10 6 0 7 -4 4 -10z m7835
-125 c7 -9 8 -15 2 -15 -5 0 -12 7 -16 15 -3 8 -4 15 -2 15 2 0 9 -7 16 -15z
m-8325 -25 c-3 -5 -12 -10 -18 -10 -7 0 -6 4 3 10 19 12 23 12 15 0z m4915
-90 c0 -8 50 -22 90 -25 14 -1 36 -7 50 -12 14 -6 29 -8 34 -5 5 3 6 0 2 -6
-3 -6 -27 -14 -52 -18 -37 -5 -48 -3 -60 12 -11 14 -17 15 -20 7 -9 -20 -21
-16 -54 18 -35 37 -38 49 -10 42 11 -3 20 -9 20 -13z m214 8 c-3 -4 0 -8 5 -8
8 0 7 -6 0 -19 -8 -11 -19 -16 -31 -13 -25 6 -35 31 -18 42 17 10 50 9 44 -2z
m210 -40 c-3 -7 -20 -24 -37 -37 l-32 -25 34 37 c38 40 43 44 35 25z m-237
-92 c-8 -23 -36 -30 -62 -16 -18 10 -22 16 -13 22 17 10 79 5 75 -6z m-92 -16
c3 -5 1 -10 -4 -10 -6 0 -11 5 -11 10 0 6 2 10 4 10 3 0 8 -4 11 -10z m4879
-72 c-9 -18 -19 -35 -22 -38 -8 -9 10 45 20 58 18 22 19 13 2 -20z m-8869 -60
c-16 -23 -16 -23 -9 7 9 41 18 53 22 33 2 -10 -4 -28 -13 -40z m485 22 c47
-12 110 -29 140 -40 30 -10 71 -23 90 -29 27 -8 29 -10 8 -7 -16 2 -28 0 -28
-3 0 -4 -18 -5 -41 -3 -34 4 -40 2 -37 -13 2 -10 -3 -20 -11 -23 -10 -3 -12 1
-8 17 5 21 4 22 -18 7 -33 -22 -45 -20 -85 9 -27 20 -46 25 -91 25 -78 0 -82
-18 -12 -60 l54 -33 -38 -13 c-51 -18 -61 -17 -68 5 -5 17 -76 46 -100 40 -6
-1 -27 6 -48 15 -23 10 -43 14 -50 8 -13 -9 -93 -9 -103 1 -4 3 -15 -4 -25
-16 -10 -12 -18 -17 -19 -10 0 17 -25 6 -66 -30 -25 -23 -33 -36 -28 -51 4
-16 -2 -14 -25 12 -36 38 -41 80 -11 107 19 17 29 17 115 0 27 -5 32 -2 53 34
20 37 26 41 62 41 43 0 110 -23 151 -52 15 -10 37 -19 50 -20 21 -3 24 1 21
24 -5 49 14 69 73 77 6 0 48 -8 95 -19z m8350 -31 c0 -6 -6 -9 -13 -6 -8 3
-20 1 -28 -4 -8 -5 -9 -9 -4 -9 6 0 21 -9 35 -19 l25 -20 -47 -11 c-47 -12
-66 -30 -95 -90 -11 -23 -12 -22 -7 15 3 22 12 57 21 78 15 34 24 42 46 38 5
-1 6 3 2 9 -3 6 4 14 17 19 32 13 48 13 48 0z m43 -26 c-7 -2 -19 -2 -25 0 -7
3 -2 5 12 5 14 0 19 -2 13 -5z m-173 -220 c0 -16 -2 -16 -35 -1 -24 11 -24 12
-8 30 16 18 18 18 30 2 7 -10 13 -24 13 -31z m-562 30 c-10 -2 -28 -2 -40 0
-13 2 -5 4 17 4 22 1 32 -1 23 -4z m-8170 -43 c16 0 0 -51 -17 -57 -9 -2 -24
-9 -33 -14 -13 -7 -18 -5 -18 5 0 8 -3 21 -6 29 -3 9 7 28 23 45 26 29 29 29
35 11 4 -10 11 -19 16 -19z m6956 5 c-9 -14 -19 -23 -22 -20 -5 4 26 45 35 45
2 0 -4 -11 -13 -25z m-7504 11 c0 -2 -9 -6 -20 -9 -11 -3 -20 -1 -20 4 0 5 9
9 20 9 11 0 20 -2 20 -4z m7185 -56 c-3 -5 -14 -10 -23 -10 -15 0 -15 2 -2 10
20 13 33 13 25 0z m1255 -50 c0 -5 -5 -10 -11 -10 -5 0 -7 5 -4 10 3 6 8 10
11 10 2 0 4 -4 4 -10z m74 -5 c16 -12 22 -12 28 -2 6 9 8 9 8 0 0 -7 -10 -17
-21 -24 -12 -6 -19 -7 -15 -1 3 6 -8 15 -24 21 -17 5 -30 12 -30 15 0 11 35 5
54 -9z m-4394 -49 c-7 -7 -10 1 -9 25 0 32 1 33 10 10 6 -16 6 -28 -1 -35z
m4310 12 c0 -18 55 -35 82 -25 7 2 21 0 31 -5 12 -6 23 -5 33 3 8 6 14 8 14 3
0 -5 6 -2 13 6 12 15 60 21 72 8 4 -4 -2 -13 -14 -20 -22 -13 -29 -62 -11 -73
6 -3 10 -13 10 -21 0 -9 7 -23 17 -32 15 -15 13 -17 -23 -28 -72 -20 -84 -26
-85 -40 -1 -8 -2 -20 -3 -26 -2 -26 -35 -39 -78 -33 -24 4 -46 11 -49 17 -4 6
-11 8 -16 5 -6 -4 -22 7 -37 22 -33 35 -32 31 -17 58 10 19 8 29 -14 63 -24
38 -25 42 -10 76 10 23 20 34 29 31 7 -3 13 0 13 6 -1 42 3 47 23 35 11 -7 20
-21 20 -30z m276 -5 c-10 -10 -19 5 -10 18 6 11 8 11 12 0 2 -7 1 -15 -2 -18z
m-8140 -4 c27 -12 65 -34 84 -49 19 -15 52 -33 74 -40 21 -7 55 -29 75 -50 20
-20 50 -44 66 -53 17 -9 24 -16 17 -17 -18 0 -66 25 -132 70 -30 20 -87 55
-125 78 -69 39 -126 81 -114 82 4 0 28 -10 55 -21z m4358 0 c-17 -19 -176
-129 -199 -138 -5 -2 -17 -10 -26 -17 -8 -8 -44 -16 -80 -19 l-64 -6 95 49
c52 28 106 60 120 73 63 60 92 75 154 78 19 1 19 1 0 -20z m-4994 -72 c-1 -12
-12 -35 -26 -52 -16 -18 -24 -23 -20 -12 3 11 9 31 12 45 10 46 14 53 24 47 5
-3 10 -16 10 -28z m7168 17 c13 -4 22 -14 22 -27 0 -11 8 -26 17 -33 21 -14
13 -26 -19 -29 -41 -4 -43 -6 -21 -15 15 -6 20 -15 16 -29 -4 -18 -39 -39 -48
-29 -4 4 -8 101 -6 141 1 29 3 30 39 21z m868 -151 c-11 -11 -17 4 -9 23 7 18
8 18 11 1 2 -10 1 -21 -2 -24z m-2870 -18 c-3 -19 -36 -55 -51 -55 -7 0 -15
-9 -18 -19 -3 -13 -20 -24 -48 -31 -24 -7 -55 -17 -69 -23 -14 -6 -28 -10 -31
-9 -3 0 -6 -5 -6 -13 0 -13 43 -13 70 0 6 4 1 -3 -12 -14 -13 -12 -20 -21 -17
-21 4 0 -4 -11 -18 -25 -14 -14 -31 -22 -39 -19 -7 2 -24 -4 -37 -14 -21 -17
-21 -19 -4 -19 10 0 35 9 54 20 19 11 55 31 78 44 24 14 46 22 49 19 4 -3 13
0 22 6 9 7 5 0 -8 -15 -30 -33 -17 -36 18 -5 14 13 10 6 -8 -15 -41 -43 -34
-48 15 -11 19 15 34 24 34 21 0 -11 -65 -67 -77 -67 -7 0 -10 -6 -7 -13 5 -15
-29 -56 -66 -78 -33 -20 -108 -43 -131 -42 -11 1 -19 -2 -19 -8 0 -5 -12 -9
-26 -9 -14 0 -23 4 -19 10 4 6 -17 10 -57 9 l-63 -2 40 -18 c22 -10 51 -16 65
-13 35 6 58 -10 41 -29 -10 -13 -9 -17 5 -25 15 -8 10 -14 -33 -36 -42 -21
-52 -23 -57 -11 -8 23 -23 18 -30 -10 -6 -24 -26 -36 -26 -15 0 6 5 10 10 10
6 0 10 12 10 26 0 14 3 23 8 21 4 -3 8 10 9 28 1 28 -3 35 -27 45 -36 15 -56
38 -62 70 -3 14 -13 43 -23 65 -14 31 -14 37 -2 27 12 -10 16 -8 21 12 3 14 3
50 0 81 -7 58 -2 65 36 45 15 -8 24 -6 41 11 15 15 29 20 49 15 18 -3 30 -1
34 7 3 9 7 9 14 -1 7 -10 11 -10 22 3 8 9 26 15 46 13 28 -2 31 -4 23 -20 -6
-10 -13 -16 -17 -14 -5 3 -14 1 -21 -3 -9 -6 -10 -11 -2 -15 6 -4 11 -2 11 4
0 6 5 8 11 5 5 -4 18 0 27 7 31 27 42 30 35 12 -5 -14 -3 -16 13 -9 10 4 31
10 47 13 15 2 27 8 27 12 0 10 83 65 93 62 5 -1 6 2 3 7 -4 5 -2 12 4 16 5 3
10 1 10 -4 0 -6 5 -11 10 -11 6 0 10 7 10 15 0 8 4 15 9 15 5 0 8 -7 7 -15z
m2959 -5 c3 -5 1 -10 -4 -10 -6 0 -11 5 -11 10 0 6 2 10 4 10 3 0 8 -4 11 -10z
m-4011 -26 c16 -10 26 -12 31 -5 9 16 25 13 25 -3 0 -20 -43 -17 -71 5 -29 23
-18 25 15 3z m392 -9 c-14 -11 -16 -15 -5 -15 12 0 12 -2 -1 -10 -12 -8 -10
-10 10 -11 25 -1 25 -1 -4 -13 -16 -8 -39 -11 -50 -8 -20 6 -20 6 4 13 18 5 7
7 -35 8 l-60 2 65 23 c79 28 103 32 76 11z m314 -5 c-8 -5 -22 -9 -30 -9 -10
0 -8 3 5 9 27 12 43 12 25 0z m-541 -22 c28 -6 51 -15 51 -20 0 -4 18 -5 40
-2 33 5 39 4 35 -8 -4 -11 -17 -14 -41 -11 -45 5 -44 -13 3 -24 34 -8 35 -9
20 -25 -10 -9 -27 -15 -39 -13 -11 3 -26 1 -31 -2 -6 -4 -32 -7 -58 -7 -37 -1
-48 3 -55 19 -5 10 -20 23 -34 27 l-25 7 25 -1 c14 -1 38 4 53 10 16 7 35 12
43 12 29 0 13 19 -21 26 -36 6 -58 24 -31 24 8 0 37 -5 65 -12z m384 -1 c4 3
7 1 7 -5 0 -6 -4 -14 -10 -17 -5 -3 -10 -1 -10 4 0 6 -7 11 -16 11 -8 0 -12 5
-9 10 5 8 11 8 19 1 7 -6 16 -8 19 -4z m-3550 -21 c30 -13 57 -31 60 -40 4 -9
5 -16 3 -16 -9 0 -103 53 -116 66 -20 20 -9 18 53 -10z m-1303 -128 c-34 -28
-48 -9 -15 20 21 18 30 21 33 12 3 -8 -5 -22 -18 -32z m4780 2 c0 -5 -2 -10
-4 -10 -3 0 -8 5 -11 10 -3 6 -1 10 4 10 6 0 11 -4 11 -10z m2185 -60 c-9 -16
-18 -30 -21 -30 -2 0 2 14 11 30 9 17 18 30 21 30 2 0 -2 -13 -11 -30z m-40
-71 c-9 -17 -19 -29 -22 -26 -5 5 25 57 33 57 3 0 -3 -14 -11 -31z m-340 -129
c-16 -16 -31 -27 -34 -24 -6 6 45 54 56 54 4 0 -6 -13 -22 -30z m325 -29 c0
-60 -32 -122 -99 -192 -38 -40 -75 -69 -86 -69 -15 0 -7 11 32 45 51 45 110
132 116 173 2 12 6 25 10 28 4 4 7 18 7 31 0 14 4 21 10 18 6 -3 10 -19 10
-34z m-5582 -21 c95 -16 97 -32 5 -49 -38 -6 -80 -14 -94 -17 -22 -5 -28 -1
-39 26 -12 30 -12 34 6 47 11 8 29 11 44 8 14 -4 49 -11 78 -15z m5452 -30 c0
-19 -51 -63 -61 -53 -18 18 8 63 36 63 14 0 25 -5 25 -10z m-1500 -41 c-7 -11
-14 -18 -17 -15 -3 3 0 12 7 21 18 21 23 19 10 -6z m-36 -43 c-3 -9 -10 -16
-14 -16 -4 0 -33 -34 -65 -76 -47 -63 -67 -80 -118 -104 -72 -35 -130 -45
-194 -35 l-48 7 101 32 c108 35 195 80 233 120 14 14 29 26 34 26 5 0 23 16
40 35 32 36 42 40 31 11z m-5257 -8 c1 -7 4 -28 8 -45 5 -23 4 -33 -4 -33 -7
0 -11 -6 -10 -12 3 -28 -2 -49 -10 -43 -14 8 -23 -12 -27 -60 -2 -33 1 -47 16
-60 28 -25 28 -115 1 -135 -11 -7 -18 -17 -15 -22 3 -4 1 -8 -4 -8 -5 0 -9
-52 -9 -116 -1 -71 -5 -120 -12 -127 -19 -19 -12 -65 22 -144 21 -49 40 -79
55 -86 12 -6 22 -19 22 -31 0 -33 -76 49 -97 103 -9 26 -27 62 -39 82 -12 20
-30 67 -40 105 -9 38 -24 79 -32 92 -19 29 -44 134 -46 195 -2 52 -14 67 -58
67 -43 0 -41 17 2 24 24 4 45 14 52 26 7 11 31 32 53 46 39 24 60 51 98 122
10 19 23 32 30 29 7 -2 18 2 25 9 7 8 10 14 7 14 -3 0 -3 5 0 10 8 13 12 13
12 -2z m6428 2 c-3 -5 -11 -10 -16 -10 -6 0 -7 5 -4 10 3 6 11 10 16 10 6 0 7
-4 4 -10z m-125 -49 c-52 -21 -130 -55 -174 -75 -89 -41 -107 -46 -56 -15 43
26 290 128 310 128 8 0 -28 -17 -80 -38z m-1245 19 c-3 -5 -13 -10 -21 -10 -8
0 -13 -4 -10 -9 15 -24 -117 -22 -142 2 -16 16 -15 17 18 12 19 -4 44 -8 54
-10 11 -2 25 0 30 4 9 8 25 12 69 20 5 0 5 -3 2 -9z m-334 -112 c31 -16 68
-28 82 -28 15 0 27 -5 27 -11 0 -7 -9 -9 -21 -6 -15 4 -19 2 -15 -9 3 -8 1
-14 -5 -14 -16 0 -64 27 -78 44 -7 9 -17 14 -21 11 -4 -3 -20 11 -34 29 -29
38 -35 63 -8 31 9 -11 42 -32 73 -47z m-3111 17 c0 -8 -9 -15 -21 -15 -25 0
-17 -16 12 -23 11 -3 18 -3 15 0 -9 10 15 33 34 33 10 0 20 5 22 12 7 21 36
-14 30 -36 -3 -13 -1 -17 6 -12 7 4 12 3 12 -1 0 -17 -33 -55 -64 -74 -17 -10
-25 -19 -17 -19 11 0 10 -5 -4 -20 -10 -11 -23 -29 -29 -39 -43 -75 -79 -131
-87 -136 -11 -7 -33 45 -23 54 4 3 9 0 11 -6 8 -21 26 -15 20 7 -3 10 0 21 7
24 6 2 3 5 -6 5 -10 1 -18 -5 -19 -11 0 -7 -5 -2 -10 11 -5 13 -7 26 -4 29 3
3 5 0 5 -7 0 -9 4 -9 14 1 8 7 12 21 10 31 -1 10 3 17 12 17 8 0 14 5 14 10 0
6 -7 10 -16 10 -9 0 -14 6 -11 13 3 8 1 20 -3 28 -5 8 -4 19 2 26 6 8 11 30
12 51 1 21 6 37 13 37 6 0 15 3 19 8 13 13 44 7 44 -8z m-2128 -12 c25 -23 23
-51 -6 -64 -20 -10 -28 -8 -48 10 l-23 22 24 18 c18 14 21 20 10 24 -9 4 -8 6
5 6 11 1 28 -6 38 -16z m6548 -28 c0 -8 -92 -46 -97 -41 -6 5 32 26 66 37 14
4 27 8 29 8 1 1 2 -1 2 -4z m-1150 -9 c0 -2 -9 -6 -20 -9 -11 -3 -18 -1 -14 4
5 9 34 13 34 5z m-5577 -136 c10 0 20 -6 23 -14 3 -8 15 -17 27 -20 12 -3 38
-19 57 -36 19 -16 27 -27 18 -24 -10 3 -18 9 -18 13 0 5 -19 14 -42 21 -24 7
-53 19 -66 27 -19 12 -23 12 -28 -2 -4 -9 -13 -14 -20 -11 -8 3 -14 -1 -14 -9
0 -8 7 -15 16 -15 8 0 12 -5 9 -10 -9 -15 -38 4 -42 26 -5 32 7 64 24 64 14 0
14 3 -3 23 -12 14 -8 13 12 -5 16 -16 38 -28 47 -28z m7692 32 c-3 -3 -11 0
-18 7 -9 10 -8 11 6 5 10 -3 15 -9 12 -12z m142 -58 c-3 -3 -12 -4 -19 -1 -8
3 -5 6 6 6 11 1 17 -2 13 -5z m431 -47 c6 -5 12 -6 12 -2 0 5 9 0 20 -10 13
-12 28 -16 47 -12 20 4 34 -1 50 -15 17 -16 25 -18 42 -9 19 11 25 8 22 -12
-1 -4 7 -10 16 -14 22 -8 122 -114 123 -130 0 -6 -4 -13 -10 -15 -6 -2 -1 -22
11 -46 26 -53 19 -65 -11 -20 -49 71 -123 135 -106 92 7 -17 -2 -13 -50 22
-18 13 -37 25 -44 26 -6 2 -25 15 -42 30 -16 16 -35 25 -42 21 -6 -3 -8 -2 -4
2 5 5 -3 15 -16 24 -79 53 -105 74 -100 82 6 10 64 0 82 -14z m271 -91 c-2 -2
-13 8 -23 22 l-19 27 24 -22 c12 -12 21 -24 18 -27z m-8330 -2 c10 -22 9 -31
-4 -50 -19 -29 -25 -30 -59 -3 -28 22 -31 35 -17 58 8 12 15 13 35 3 21 -9 24
-9 19 3 -10 26 13 16 26 -11z m1961 -14 c0 -5 -5 -10 -11 -10 -5 0 -7 5 -4 10
3 6 8 10 11 10 2 0 4 -4 4 -10z m-30 -30 c13 -8 13 -10 -2 -10 -9 0 -20 5 -23
10 -8 13 5 13 25 0z m3380 -60 c-8 -5 -19 -10 -25 -10 -5 0 -3 5 5 10 8 5 20
10 25 10 6 0 3 -5 -5 -10z m2916 -15 c3 -14 12 -25 20 -25 8 0 14 -9 14 -20 0
-11 5 -20 10 -20 19 0 10 -16 -10 -17 -17 -1 -19 3 -14 23 5 19 3 23 -10 18
-9 -3 -13 -11 -10 -16 4 -6 -5 -3 -19 7 -14 9 -24 23 -21 31 2 8 6 21 9 29 7
23 24 18 31 -10z m219 -15 c18 -20 15 -38 -4 -25 -15 9 -33 45 -23 45 5 0 17
-9 27 -20z m-3200 0 c-3 -5 -12 -10 -18 -10 -7 0 -6 4 3 10 19 12 23 12 15 0z
m-35 -14 c0 -8 -65 -44 -90 -50 -14 -4 0 7 30 23 60 33 60 33 60 27z m2972
-54 c25 -20 67 -60 93 -89 l46 -52 -23 -23 c-26 -26 -48 -64 -48 -84 0 -8 -10
-14 -25 -14 -14 0 -25 5 -25 11 0 6 -8 18 -18 27 -21 19 -69 130 -82 187 -6
29 -5 41 8 55 10 10 19 19 22 19 3 0 26 -16 52 -37z m-8474 -4 c16 -27 16 -27
-42 -85 -32 -32 -64 -70 -72 -85 -7 -14 -25 -35 -39 -46 -14 -11 -21 -22 -16
-24 7 -2 7 -8 1 -18 -8 -13 -11 -12 -16 6 -3 11 -16 25 -29 30 l-24 9 25 52
c33 68 150 195 176 191 11 -2 27 -15 36 -30z m2337 -170 c-2 -18 -3 -41 -4
-52 -1 -16 -3 -17 -17 -5 -14 11 -14 14 -1 24 8 6 13 22 12 38 -2 15 0 27 5
27 4 0 6 -15 5 -32z m62 26 c-3 -3 -12 -4 -19 -1 -8 3 -5 6 6 6 11 1 17 -2 13
-5z m-2627 -94 c0 -5 -4 -10 -10 -10 -5 0 -10 5 -10 10 0 6 5 10 10 10 6 0 10
-4 10 -10z m2765 -60 c-3 -5 -10 -10 -16 -10 -5 0 -9 5 -9 10 0 6 7 10 16 10
8 0 12 -4 9 -10z m-350 -66 c-8 -13 -15 -30 -15 -39 0 -8 -11 -20 -24 -25 -13
-5 -27 -13 -30 -19 -3 -5 -25 -12 -49 -16 -23 -4 -49 -11 -58 -16 -23 -12 -61
1 -54 18 4 11 1 13 -11 9 -12 -4 -15 -2 -10 9 3 9 0 15 -8 15 -14 0 -26 21
-26 46 0 9 4 13 9 10 5 -4 11 -2 13 4 4 12 49 14 108 5 40 -6 51 -3 100 29 54
35 55 36 62 15 6 -14 3 -30 -7 -45z m310 49 c-8 -60 -30 -78 -56 -47 -11 13
-8 19 16 40 33 29 43 30 40 7z m7052 -219 c-4 -5 -87 167 -87 181 0 6 21 -32
46 -84 25 -51 44 -95 41 -97z m-7112 167 c8 -14 -13 -24 -33 -16 -14 5 -14 7
-2 15 19 12 27 12 35 1z m-87 -62 c2 -23 2 -23 -13 -5 -18 24 -20 39 -2 34 6
-3 13 -15 15 -29z m-581 -143 c15 -33 17 -66 4 -66 -4 0 -15 28 -24 63 -8 34
-18 71 -22 82 -5 19 14 -18 42 -79z m-358 50 c-15 -13 -49 -25 -49 -17 0 5 8
12 18 14 24 6 36 8 31 3z m1132 -57 c-11 -11 -24 -19 -29 -19 -5 0 -15 -7 -22
-15 -12 -14 -30 -12 -30 3 0 4 11 19 24 33 18 20 31 25 51 21 26 -5 26 -5 6
-23z m7039 -12 c0 -5 -7 -4 -15 3 -8 7 -15 20 -15 29 1 13 3 13 15 -3 8 -11
15 -24 15 -29z m-1196 -59 c-32 -35 -70 -72 -84 -83 -21 -16 -19 -12 8 22 31
40 119 123 130 123 3 0 -22 -28 -54 -62z m-2939 42 c-3 -5 -12 -10 -18 -10 -7
0 -6 4 3 10 19 12 23 12 15 0z m4149 -15 c3 -8 1 -15 -3 -15 -5 0 -11 7 -15
15 -3 8 -1 15 3 15 5 0 11 -7 15 -15z m56 -97 c63 -86 128 -158 144 -158 18
-1 192 -267 181 -278 -3 -3 -5 -1 -5 4 0 5 -14 10 -30 11 -17 1 -30 -2 -30 -8
0 -6 5 -7 10 -4 6 3 10 4 10 1 0 -34 -84 67 -145 174 -8 13 -7 13 10 0 17 -14
17 -14 5 7 -8 12 -17 20 -21 17 -10 -6 -131 176 -161 242 -12 27 -24 52 -26
57 -2 4 -1 7 1 7 3 0 29 -32 57 -72z m-6780 32 c0 -12 7 -20 18 -20 14 0 15
-2 2 -10 -12 -8 -13 -12 -2 -19 10 -6 7 -10 -12 -15 -33 -8 -34 -26 -2 -26 37
0 39 -14 6 -45 -16 -15 -27 -32 -23 -38 3 -5 9 -4 13 3 6 9 11 7 19 -9 13 -24
11 -25 -24 -9 -18 8 -25 18 -22 29 3 10 -1 20 -9 23 -8 3 -14 -1 -14 -9 0 -22
-15 -18 -29 8 -6 12 -9 14 -7 5 3 -10 1 -18 -4 -18 -5 0 -12 -11 -16 -25 -3
-14 -10 -25 -16 -25 -5 0 -6 5 -2 12 4 6 8 21 10 33 1 13 10 35 20 50 10 16
19 40 20 54 1 14 2 31 3 37 1 9 41 30 64 33 4 1 7 -8 7 -19z m-699 -47 c-5
-32 -11 -38 -38 -44 -18 -3 -43 -14 -57 -22 -23 -16 -24 -15 -29 16 -4 26 0
36 21 52 28 22 56 32 88 34 19 1 20 -3 15 -36z m2709 -103 c-36 -11 -52 -11
-45 0 3 6 21 10 38 9 31 -1 31 -1 7 -9z m-2058 -24 c3 2 8 -2 11 -11 5 -10 0
-15 -13 -15 -11 0 -20 -6 -21 -12 0 -7 -4 -4 -8 7 -11 27 -3 49 14 35 6 -5 14
-7 17 -4z m1905 -28 c1 -23 8 -45 15 -50 9 -6 5 -7 -9 -3 -15 4 -23 2 -23 -6
0 -8 -4 -8 -12 -2 -7 6 -41 10 -75 11 -98 1 -101 2 -48 23 28 11 59 29 70 39
18 16 41 26 70 29 6 0 11 -18 12 -41z m-2840 -20 c-3 -8 -6 -5 -6 6 -1 11 2
17 5 13 3 -3 4 -12 1 -19z m7239 -208 c12 -25 34 -59 48 -75 14 -17 26 -34 26
-38 0 -5 12 -24 26 -43 15 -19 22 -34 18 -34 -5 0 -4 -4 1 -8 11 -8 39 -63 37
-73 -1 -4 8 -15 18 -24 11 -10 20 -23 20 -30 0 -6 9 -20 19 -32 10 -11 21 -29
23 -39 2 -12 10 -18 23 -16 14 2 26 -8 38 -28 16 -26 16 -30 3 -30 -9 0 -16 5
-16 12 0 6 -6 4 -13 -7 -13 -17 -14 -16 -20 15 l-7 32 -60 -4 c-58 -4 -61 -3
-85 28 -13 17 -32 48 -42 69 -17 35 -17 38 0 50 23 16 22 25 -4 25 -11 0 -17
5 -14 10 3 6 2 10 -3 10 -6 0 -9 13 -8 29 1 17 -1 28 -5 25 -4 -2 -12 10 -18
26 -5 17 -15 30 -21 30 -20 0 -130 277 -130 327 0 19 113 -141 146 -207z m9
189 c-4 -5 -1 -9 4 -9 6 0 11 -5 11 -11 0 -8 -5 -8 -15 1 -17 14 -21 45 -5 35
6 -4 8 -11 5 -16z m-6742 -71 c-3 -13 -10 -28 -15 -35 -6 -7 -5 -20 2 -33 9
-17 6 -30 -19 -73 -44 -74 -58 -90 -73 -83 -37 19 -62 36 -54 36 6 0 2 6 -8
13 -18 13 -18 14 0 35 10 12 24 22 31 22 12 0 17 13 11 24 -2 2 5 13 15 23 9
11 14 23 10 26 -3 4 8 10 25 13 18 4 32 11 32 16 0 5 4 7 9 3 5 -3 12 4 16 15
9 28 24 25 18 -2z m2302 -18 c-3 -5 -12 -10 -18 -10 -7 0 -6 4 3 10 19 12 23
12 15 0z m5275 -216 c0 -20 -7 -17 -20 6 -9 16 -8 18 5 14 8 -4 15 -12 15 -20z
m86 -55 c1 -31 31 -88 57 -109 21 -17 16 -40 -8 -40 -17 0 -37 34 -27 45 4 5
2 5 -5 2 -7 -4 -21 8 -35 30 -24 39 -32 73 -17 73 5 0 9 7 9 16 0 26 25 10 26
-17z m-8073 -104 c3 -17 2 -37 -3 -44 -15 -25 -30 0 -30 52 0 44 2 49 14 37 7
-8 16 -29 19 -45z m437 -57 c0 -17 -40 -82 -46 -75 -7 6 29 87 38 87 5 0 8 -6
8 -12z m7845 -178 c14 -27 29 -50 33 -50 11 0 33 -39 43 -74 l9 -31 -20 25
c-83 106 -121 180 -95 180 3 0 16 -22 30 -50z m-796 -114 c47 -90 52 -107 16
-53 -14 20 -28 37 -31 37 -3 0 -3 -4 0 -9 3 -5 -3 -11 -14 -14 -11 -3 -20 -10
-20 -16 0 -6 7 -8 16 -4 14 5 15 3 5 -15 -7 -12 -14 -22 -16 -22 -2 0 -20 23
-38 50 l-34 51 28 29 c16 16 29 36 29 46 0 26 11 10 59 -80z m-2252 -28 c-3
-8 -6 -5 -6 6 -1 11 2 17 5 13 3 -3 4 -12 1 -19z m-4279 -87 c-13 -21 -78 -56
-78 -42 0 5 -3 16 -6 24 -3 9 10 26 38 46 41 30 43 31 50 11 4 -12 3 -29 -4
-39z m4392 -14 c0 -15 -29 -57 -30 -42 0 6 3 20 6 33 7 24 24 31 24 9z m85
-27 c22 -43 19 -47 -15 -15 -33 32 -38 45 -15 45 8 0 21 -13 30 -30z m3059
-56 c3 -8 2 -12 -4 -9 -6 3 -10 10 -10 16 0 14 7 11 14 -7z m-7538 -39 c-21
-16 -32 -13 -21 4 3 6 14 11 23 11 15 -1 15 -2 -2 -15z m-56 -40 c0 -2 -15
-12 -32 -21 l-33 -17 19 22 c17 19 46 29 46 16z m4587 -42 c-3 -10 -5 -4 -5
12 0 17 2 24 5 18 2 -7 2 -21 0 -30z m2914 -10 c13 -16 12 -17 -3 -4 -10 7
-18 15 -18 17 0 8 8 3 21 -13z m39 -6 c0 -7 -6 -21 -13 -31 -12 -16 -15 -16
-26 -3 -10 13 -9 16 9 22 11 3 18 11 15 16 -4 5 -1 9 4 9 6 0 11 -6 11 -13z
m-8792 -56 c0 -23 -3 -28 -18 -24 -14 4 -18 -1 -18 -19 1 -39 -6 -87 -12 -83
-12 7 1 140 17 168 9 15 30 -13 31 -42z m5829 27 c-3 -8 -6 -5 -6 6 -1 11 2
17 5 13 3 -3 4 -12 1 -19z m-4786 -106 c-33 -61 -133 -137 -271 -206 -41 -20
-122 -73 -180 -116 -58 -44 -111 -79 -117 -80 -7 0 -13 -5 -13 -12 0 -6 -3 -8
-6 -5 -13 13 -45 -14 -39 -33 3 -10 1 -21 -5 -25 -5 -3 -10 -13 -10 -22 0 -9
-11 -31 -25 -49 -14 -18 -25 -35 -25 -38 0 -22 -80 -123 -123 -154 -86 -64
-103 -73 -147 -78 l-43 -5 65 78 c35 43 89 112 119 153 145 197 377 390 469
390 20 0 70 24 79 38 3 5 29 21 57 35 28 14 89 53 135 86 46 33 85 61 87 61 1
0 -2 -8 -7 -18z m559 -26 c0 -2 -7 -6 -15 -10 -8 -3 -15 -1 -15 4 0 6 7 10 15
10 8 0 15 -2 15 -4z m7330 -17 c7 -11 9 -23 6 -26 -8 -9 -36 17 -36 33 0 21
18 17 30 -7z m-7329 -21 c1 -7 1 -16 0 -20 0 -5 6 -8 14 -8 8 0 15 -5 15 -11
0 -5 -4 -7 -10 -4 -5 3 -10 0 -10 -7 0 -14 -27 21 -28 37 0 5 -9 12 -19 16
-14 6 -12 8 10 8 15 1 28 -5 28 -11z m707 -60 c5 -7 20 -31 31 -53 l22 -40
-40 45 c-22 25 -41 48 -41 53 0 11 17 8 28 -5z m82 -118 c0 -5 -5 -10 -11 -10
-5 0 -7 5 -4 10 3 6 8 10 11 10 2 0 4 -4 4 -10z m-97 -154 c18 -7 45 -18 61
-25 16 -6 26 -14 24 -16 -5 -6 -108 34 -122 47 -15 12 2 10 37 -6z m174 -2
c-3 -4 0 -19 8 -34 8 -15 11 -30 8 -34 -4 -3 -1 -6 5 -6 7 0 9 -7 5 -17 -5
-12 -11 -3 -23 33 -16 46 -17 64 -3 64 4 0 4 -3 0 -6z m-57 -124 c0 -5 -2 -10
-4 -10 -3 0 -8 5 -11 10 -3 6 -1 10 4 10 6 0 11 -4 11 -10z m87 -12 c-3 -8 -6
-5 -6 6 -1 11 2 17 5 13 3 -3 4 -12 1 -19z m4920 -22 c2 -1 -18 -12 -43 -24
-25 -12 -43 -18 -40 -13 4 5 3 11 -1 14 -5 2 -2 2 6 0 10 -2 11 0 4 9 -5 7
-10 23 -11 35 l-1 23 42 -21 c23 -12 43 -22 44 -23z m-5122 14 c23 -26 46 -83
52 -132 5 -36 3 -38 -21 -38 -26 0 -98 -39 -111 -60 -3 -5 -15 -10 -26 -10
-26 0 -25 28 7 123 16 47 33 81 45 87 10 6 19 20 19 30 0 26 12 25 35 0z m110
-80 c-3 -5 -10 -10 -16 -10 -5 0 -9 5 -9 10 0 6 7 10 16 10 8 0 12 -4 9 -10z
m80 -37 c-9 -37 -25 -53 -25 -26 0 29 10 53 22 53 6 0 7 -11 3 -27z"/>
<path d="M6615 5561 c-3 -5 -1 -12 5 -16 5 -3 10 1 10 9 0 18 -6 21 -15 7z"/>
<path d="M15250 4781 c0 -6 4 -13 10 -16 6 -3 7 1 4 9 -7 18 -14 21 -14 7z"/>
<path d="M14610 4541 c0 -6 4 -13 10 -16 6 -3 7 1 4 9 -7 18 -14 21 -14 7z"/>
<path d="M10730 4090 c0 -6 7 -10 15 -10 8 0 15 2 15 4 0 2 -7 6 -15 10 -8 3
-15 1 -15 -4z"/>
<path d="M10770 4089 c0 -5 5 -7 10 -4 6 3 10 8 10 11 0 2 -4 4 -10 4 -5 0
-10 -5 -10 -11z"/>
<path d="M10765 4043 c-16 -3 -34 -9 -40 -15 -12 -12 61 -2 85 13 17 10 12 10
-45 2z"/>
<path d="M10218 4263 c7 -3 16 -2 19 1 4 3 -2 6 -13 5 -11 0 -14 -3 -6 -6z"/>
<path d="M7400 3590 c-12 -7 -12 -12 -3 -21 15 -15 26 -7 21 15 -2 11 -7 13
-18 6z"/>
<path d="M7320 3510 c0 -4 6 -13 14 -19 10 -9 15 -8 19 3 3 8 -2 16 -14 19
-10 3 -19 2 -19 -3z"/>
<path d="M7300 3476 c0 -9 5 -16 10 -16 6 0 10 4 10 9 0 6 -4 13 -10 16 -5 3
-10 -1 -10 -9z"/>
<path d="M6880 2661 c0 -5 7 -12 16 -15 14 -5 15 -4 4 9 -14 17 -20 19 -20 6z"/>
<path d="M7305 1960 c4 -6 11 -8 16 -5 14 9 11 15 -7 15 -8 0 -12 -5 -9 -10z"/>
<path d="M8065 619 c-4 -6 -5 -12 -2 -15 2 -3 7 2 10 11 7 17 1 20 -8 4z"/>
<path d="M8118 613 c7 -3 16 -2 19 1 4 3 -2 6 -13 5 -11 0 -14 -3 -6 -6z"/>
<path d="M7530 330 c0 -5 5 -10 10 -10 6 0 10 5 10 10 0 6 -4 10 -10 10 -5 0
-10 -4 -10 -10z"/>
</g>
</svg>
